<mxfile host="65bd71144e">
    <diagram id="4ZtpJcD_Y4Y_Avdovtlj" name="Page-1">
        <mxGraphModel dx="389" dy="1144" grid="1" gridSize="10" guides="1" tooltips="1" connect="1" arrows="1" fold="1" page="1" pageScale="1" pageWidth="827" pageHeight="1169" math="0" shadow="0">
            <root>
                <mxCell id="0"/>
                <mxCell id="1" parent="0"/>
                <mxCell id="SNWlgHgtVvRxtVX5j3jr-14" value="" style="rounded=0;whiteSpace=wrap;html=1;" vertex="1" parent="1">
                    <mxGeometry x="846" y="10" width="764" height="1150" as="geometry"/>
                </mxCell>
                <mxCell id="3" value="" style="rounded=0;whiteSpace=wrap;html=1;" parent="1" vertex="1">
                    <mxGeometry x="896" y="65" width="530" height="1040" as="geometry"/>
                </mxCell>
                <mxCell id="9" value="" style="endArrow=none;dashed=1;html=1;dashPattern=1 3;strokeWidth=2;" parent="1" edge="1">
                    <mxGeometry width="50" height="50" relative="1" as="geometry">
                        <mxPoint x="1160.4099999999999" y="970" as="sourcePoint"/>
                        <mxPoint x="1160.4099999999999" y="840" as="targetPoint"/>
                    </mxGeometry>
                </mxCell>
                <mxCell id="14" value="Isolated Tenents" style="text;strokeColor=none;fillColor=none;align=left;verticalAlign=middle;spacingLeft=4;spacingRight=4;overflow=hidden;points=[[0,0.5],[1,0.5]];portConstraint=eastwest;rotatable=0;fontSize=20;" parent="1" vertex="1">
                    <mxGeometry x="1083.5" y="1010" width="155" height="30" as="geometry"/>
                </mxCell>
                <mxCell id="lk1nfjQ8ctNzivv_BzYL-20" value="" style="group" parent="1" vertex="1" connectable="0">
                    <mxGeometry x="946" y="140" width="433" height="290" as="geometry"/>
                </mxCell>
                <mxCell id="lk1nfjQ8ctNzivv_BzYL-21" value="" style="rounded=0;whiteSpace=wrap;html=1;" parent="lk1nfjQ8ctNzivv_BzYL-20" vertex="1">
                    <mxGeometry width="433" height="290" as="geometry"/>
                </mxCell>
                <mxCell id="lk1nfjQ8ctNzivv_BzYL-22" value="" style="endArrow=none;html=1;entryX=0.25;entryY=0;entryDx=0;entryDy=0;exitX=0.25;exitY=1;exitDx=0;exitDy=0;strokeWidth=5;" parent="lk1nfjQ8ctNzivv_BzYL-20" source="lk1nfjQ8ctNzivv_BzYL-21" target="lk1nfjQ8ctNzivv_BzYL-21" edge="1">
                    <mxGeometry width="50" height="50" relative="1" as="geometry">
                        <mxPoint x="108.5" y="270" as="sourcePoint"/>
                        <mxPoint x="108.5" y="20" as="targetPoint"/>
                    </mxGeometry>
                </mxCell>
                <mxCell id="lk1nfjQ8ctNzivv_BzYL-23" value="Load&#10;&#10;B&#10;A&#10;L&#10;A&#10;N&#10;C&#10;E&#10;R" style="text;strokeColor=none;fillColor=none;align=center;verticalAlign=middle;spacingLeft=4;spacingRight=4;overflow=hidden;points=[[0,0.5],[1,0.5]];portConstraint=eastwest;rotatable=0;fontSize=20;" parent="lk1nfjQ8ctNzivv_BzYL-20" vertex="1">
                    <mxGeometry x="11.5" y="20" width="80" height="260" as="geometry"/>
                </mxCell>
                <mxCell id="lk1nfjQ8ctNzivv_BzYL-24" value="Kubernetes Engine" style="text;strokeColor=none;fillColor=none;align=left;verticalAlign=middle;spacingLeft=4;spacingRight=4;overflow=hidden;points=[[0,0.5],[1,0.5]];portConstraint=eastwest;rotatable=0;fontSize=20;" parent="lk1nfjQ8ctNzivv_BzYL-20" vertex="1">
                    <mxGeometry x="171.5" y="20" width="182.5" height="30" as="geometry"/>
                </mxCell>
                <mxCell id="lk1nfjQ8ctNzivv_BzYL-25" value="" style="endArrow=none;html=1;fontSize=20;entryX=1;entryY=0.25;entryDx=0;entryDy=0;" parent="lk1nfjQ8ctNzivv_BzYL-20" target="lk1nfjQ8ctNzivv_BzYL-21" edge="1">
                    <mxGeometry width="50" height="50" relative="1" as="geometry">
                        <mxPoint x="111.5" y="73" as="sourcePoint"/>
                        <mxPoint x="61.5" y="50" as="targetPoint"/>
                    </mxGeometry>
                </mxCell>
                <mxCell id="lk1nfjQ8ctNzivv_BzYL-26" value="" style="rounded=0;whiteSpace=wrap;html=1;fontSize=20;" parent="lk1nfjQ8ctNzivv_BzYL-20" vertex="1">
                    <mxGeometry x="121.5" y="90" width="300" height="160" as="geometry"/>
                </mxCell>
                <mxCell id="lk1nfjQ8ctNzivv_BzYL-27" value="Pods" style="text;strokeColor=none;fillColor=none;align=left;verticalAlign=middle;spacingLeft=4;spacingRight=4;overflow=hidden;points=[[0,0.5],[1,0.5]];portConstraint=eastwest;rotatable=0;fontSize=18;" parent="lk1nfjQ8ctNzivv_BzYL-20" vertex="1">
                    <mxGeometry x="246.5" y="255" width="50" height="30" as="geometry"/>
                </mxCell>
                <mxCell id="lk1nfjQ8ctNzivv_BzYL-28" value="Edge Master Containers&#10;Reverse Edge Containers " style="text;strokeColor=none;fillColor=none;align=center;verticalAlign=middle;spacingLeft=4;spacingRight=4;overflow=hidden;points=[[0,0.5],[1,0.5]];portConstraint=eastwest;rotatable=0;fontSize=18;" parent="lk1nfjQ8ctNzivv_BzYL-20" vertex="1">
                    <mxGeometry x="161.5" y="120" width="220" height="100" as="geometry"/>
                </mxCell>
                <mxCell id="lk1nfjQ8ctNzivv_BzYL-29" value="Cluster" style="text;strokeColor=none;fillColor=none;align=center;verticalAlign=middle;spacingLeft=4;spacingRight=4;overflow=hidden;points=[[0,0.5],[1,0.5]];portConstraint=eastwest;rotatable=0;fontSize=25;" parent="1" vertex="1">
                    <mxGeometry x="1456" y="490" width="130" height="90" as="geometry"/>
                </mxCell>
                <mxCell id="LS5E79zvGKr02KfoP2-s-20" value="" style="group" parent="1" vertex="1" connectable="0">
                    <mxGeometry x="946" y="480" width="433" height="290" as="geometry"/>
                </mxCell>
                <mxCell id="LS5E79zvGKr02KfoP2-s-21" value="" style="rounded=0;whiteSpace=wrap;html=1;" parent="LS5E79zvGKr02KfoP2-s-20" vertex="1">
                    <mxGeometry width="433" height="290" as="geometry"/>
                </mxCell>
                <mxCell id="LS5E79zvGKr02KfoP2-s-22" value="" style="endArrow=none;html=1;entryX=0.25;entryY=0;entryDx=0;entryDy=0;exitX=0.25;exitY=1;exitDx=0;exitDy=0;strokeWidth=5;" parent="LS5E79zvGKr02KfoP2-s-20" source="LS5E79zvGKr02KfoP2-s-21" target="LS5E79zvGKr02KfoP2-s-21" edge="1">
                    <mxGeometry width="50" height="50" relative="1" as="geometry">
                        <mxPoint x="108.5" y="270" as="sourcePoint"/>
                        <mxPoint x="108.5" y="20" as="targetPoint"/>
                    </mxGeometry>
                </mxCell>
                <mxCell id="LS5E79zvGKr02KfoP2-s-23" value="Load&#10;&#10;B&#10;A&#10;L&#10;A&#10;N&#10;C&#10;E&#10;R" style="text;strokeColor=none;fillColor=none;align=center;verticalAlign=middle;spacingLeft=4;spacingRight=4;overflow=hidden;points=[[0,0.5],[1,0.5]];portConstraint=eastwest;rotatable=0;fontSize=20;" parent="LS5E79zvGKr02KfoP2-s-20" vertex="1">
                    <mxGeometry x="11.5" y="20" width="80" height="260" as="geometry"/>
                </mxCell>
                <mxCell id="LS5E79zvGKr02KfoP2-s-24" value="Kubernetes Engine" style="text;strokeColor=none;fillColor=none;align=left;verticalAlign=middle;spacingLeft=4;spacingRight=4;overflow=hidden;points=[[0,0.5],[1,0.5]];portConstraint=eastwest;rotatable=0;fontSize=20;" parent="LS5E79zvGKr02KfoP2-s-20" vertex="1">
                    <mxGeometry x="171.5" y="20" width="182.5" height="30" as="geometry"/>
                </mxCell>
                <mxCell id="LS5E79zvGKr02KfoP2-s-25" value="" style="endArrow=none;html=1;fontSize=20;entryX=1;entryY=0.25;entryDx=0;entryDy=0;" parent="LS5E79zvGKr02KfoP2-s-20" target="LS5E79zvGKr02KfoP2-s-21" edge="1">
                    <mxGeometry width="50" height="50" relative="1" as="geometry">
                        <mxPoint x="111.5" y="73" as="sourcePoint"/>
                        <mxPoint x="61.5" y="50" as="targetPoint"/>
                    </mxGeometry>
                </mxCell>
                <mxCell id="LS5E79zvGKr02KfoP2-s-26" value="" style="rounded=0;whiteSpace=wrap;html=1;fontSize=20;" parent="LS5E79zvGKr02KfoP2-s-20" vertex="1">
                    <mxGeometry x="121.5" y="90" width="300" height="160" as="geometry"/>
                </mxCell>
                <mxCell id="LS5E79zvGKr02KfoP2-s-27" value="Pods" style="text;strokeColor=none;fillColor=none;align=left;verticalAlign=middle;spacingLeft=4;spacingRight=4;overflow=hidden;points=[[0,0.5],[1,0.5]];portConstraint=eastwest;rotatable=0;fontSize=18;" parent="LS5E79zvGKr02KfoP2-s-20" vertex="1">
                    <mxGeometry x="246.5" y="255" width="50" height="30" as="geometry"/>
                </mxCell>
                <mxCell id="LS5E79zvGKr02KfoP2-s-28" value="Edge Master Containers&#10;Reverse Edge Containers " style="text;strokeColor=none;fillColor=none;align=center;verticalAlign=middle;spacingLeft=4;spacingRight=4;overflow=hidden;points=[[0,0.5],[1,0.5]];portConstraint=eastwest;rotatable=0;fontSize=18;" parent="LS5E79zvGKr02KfoP2-s-20" vertex="1">
                    <mxGeometry x="161.5" y="120" width="220" height="100" as="geometry"/>
                </mxCell>
            </root>
        </mxGraphModel>
    </diagram>
    <diagram id="cD2iieWtT4hbdz-7aAc9" name="Single Tenent">
        <mxGraphModel dx="114" dy="629" grid="1" gridSize="10" guides="1" tooltips="1" connect="1" arrows="1" fold="1" page="1" pageScale="1" pageWidth="827" pageHeight="1169" math="0" shadow="0">
            <root>
                <mxCell id="v37Bvk39BJbwFgnpwqut-0"/>
                <mxCell id="v37Bvk39BJbwFgnpwqut-1" parent="v37Bvk39BJbwFgnpwqut-0"/>
                <mxCell id="5-o2E5kgTiigTJK3ST0E-0" value="" style="group" parent="v37Bvk39BJbwFgnpwqut-1" vertex="1" connectable="0">
                    <mxGeometry x="1010" y="370" width="433" height="290" as="geometry"/>
                </mxCell>
                <mxCell id="ZAtGcECQChNFfknKaknw-3" value="" style="rounded=0;whiteSpace=wrap;html=1;" parent="5-o2E5kgTiigTJK3ST0E-0" vertex="1">
                    <mxGeometry width="433" height="290" as="geometry"/>
                </mxCell>
                <mxCell id="ZAtGcECQChNFfknKaknw-6" value="" style="endArrow=none;html=1;entryX=0.25;entryY=0;entryDx=0;entryDy=0;exitX=0.25;exitY=1;exitDx=0;exitDy=0;strokeWidth=5;" parent="5-o2E5kgTiigTJK3ST0E-0" source="ZAtGcECQChNFfknKaknw-3" target="ZAtGcECQChNFfknKaknw-3" edge="1">
                    <mxGeometry width="50" height="50" relative="1" as="geometry">
                        <mxPoint x="108.5" y="270" as="sourcePoint"/>
                        <mxPoint x="108.5" y="20" as="targetPoint"/>
                    </mxGeometry>
                </mxCell>
                <mxCell id="ZAtGcECQChNFfknKaknw-7" value="Load&#10;&#10;B&#10;A&#10;L&#10;A&#10;N&#10;C&#10;E&#10;R" style="text;strokeColor=none;fillColor=none;align=center;verticalAlign=middle;spacingLeft=4;spacingRight=4;overflow=hidden;points=[[0,0.5],[1,0.5]];portConstraint=eastwest;rotatable=0;fontSize=20;" parent="5-o2E5kgTiigTJK3ST0E-0" vertex="1">
                    <mxGeometry x="11.5" y="20" width="80" height="260" as="geometry"/>
                </mxCell>
                <mxCell id="ZAtGcECQChNFfknKaknw-10" value="Kubernetes Engine" style="text;strokeColor=none;fillColor=none;align=left;verticalAlign=middle;spacingLeft=4;spacingRight=4;overflow=hidden;points=[[0,0.5],[1,0.5]];portConstraint=eastwest;rotatable=0;fontSize=20;" parent="5-o2E5kgTiigTJK3ST0E-0" vertex="1">
                    <mxGeometry x="171.5" y="20" width="182.5" height="30" as="geometry"/>
                </mxCell>
                <mxCell id="ZAtGcECQChNFfknKaknw-11" value="" style="endArrow=none;html=1;fontSize=20;entryX=1;entryY=0.25;entryDx=0;entryDy=0;" parent="5-o2E5kgTiigTJK3ST0E-0" target="ZAtGcECQChNFfknKaknw-3" edge="1">
                    <mxGeometry width="50" height="50" relative="1" as="geometry">
                        <mxPoint x="111.5" y="73" as="sourcePoint"/>
                        <mxPoint x="61.5" y="50" as="targetPoint"/>
                    </mxGeometry>
                </mxCell>
                <mxCell id="ZAtGcECQChNFfknKaknw-12" value="" style="rounded=0;whiteSpace=wrap;html=1;fontSize=20;" parent="5-o2E5kgTiigTJK3ST0E-0" vertex="1">
                    <mxGeometry x="121.5" y="90" width="300" height="160" as="geometry"/>
                </mxCell>
                <mxCell id="ZAtGcECQChNFfknKaknw-13" value="Pods" style="text;strokeColor=none;fillColor=none;align=left;verticalAlign=middle;spacingLeft=4;spacingRight=4;overflow=hidden;points=[[0,0.5],[1,0.5]];portConstraint=eastwest;rotatable=0;fontSize=18;" parent="5-o2E5kgTiigTJK3ST0E-0" vertex="1">
                    <mxGeometry x="246.5" y="255" width="50" height="30" as="geometry"/>
                </mxCell>
                <mxCell id="ZAtGcECQChNFfknKaknw-14" value="Edge Master Containers&#10;Reverse Edge Containers " style="text;strokeColor=none;fillColor=none;align=center;verticalAlign=middle;spacingLeft=4;spacingRight=4;overflow=hidden;points=[[0,0.5],[1,0.5]];portConstraint=eastwest;rotatable=0;fontSize=18;" parent="5-o2E5kgTiigTJK3ST0E-0" vertex="1">
                    <mxGeometry x="161.5" y="120" width="220" height="100" as="geometry"/>
                </mxCell>
            </root>
        </mxGraphModel>
    </diagram>
    <diagram id="f-o4-QZO0LTi6gAQRT_t" name="Multi Tenent">
        <mxGraphModel dx="941" dy="629" grid="1" gridSize="10" guides="1" tooltips="1" connect="1" arrows="1" fold="1" page="1" pageScale="1" pageWidth="827" pageHeight="1169" math="0" shadow="0">
            <root>
                <mxCell id="aslZWIxpUyHyU3H2UiJW-0"/>
                <mxCell id="aslZWIxpUyHyU3H2UiJW-1" parent="aslZWIxpUyHyU3H2UiJW-0"/>
                <mxCell id="JuvClYUw6dJ6BhOAlNbx-0" value="" style="rounded=0;whiteSpace=wrap;html=1;" parent="aslZWIxpUyHyU3H2UiJW-1" vertex="1">
                    <mxGeometry x="80" y="65" width="530" height="1040" as="geometry"/>
                </mxCell>
                <mxCell id="JuvClYUw6dJ6BhOAlNbx-1" value="" style="endArrow=none;dashed=1;html=1;dashPattern=1 3;strokeWidth=2;" parent="aslZWIxpUyHyU3H2UiJW-1" edge="1">
                    <mxGeometry width="50" height="50" relative="1" as="geometry">
                        <mxPoint x="344.40999999999985" y="970" as="sourcePoint"/>
                        <mxPoint x="344.40999999999985" y="840" as="targetPoint"/>
                    </mxGeometry>
                </mxCell>
                <mxCell id="JuvClYUw6dJ6BhOAlNbx-2" value="Isolated Tenents" style="text;strokeColor=none;fillColor=none;align=left;verticalAlign=middle;spacingLeft=4;spacingRight=4;overflow=hidden;points=[[0,0.5],[1,0.5]];portConstraint=eastwest;rotatable=0;fontSize=20;" parent="aslZWIxpUyHyU3H2UiJW-1" vertex="1">
                    <mxGeometry x="267.5" y="1010" width="155" height="30" as="geometry"/>
                </mxCell>
                <mxCell id="JuvClYUw6dJ6BhOAlNbx-3" value="" style="group" parent="aslZWIxpUyHyU3H2UiJW-1" vertex="1" connectable="0">
                    <mxGeometry x="130" y="140" width="433" height="290" as="geometry"/>
                </mxCell>
                <mxCell id="JuvClYUw6dJ6BhOAlNbx-4" value="" style="rounded=0;whiteSpace=wrap;html=1;" parent="JuvClYUw6dJ6BhOAlNbx-3" vertex="1">
                    <mxGeometry width="433" height="290" as="geometry"/>
                </mxCell>
                <mxCell id="JuvClYUw6dJ6BhOAlNbx-5" value="" style="endArrow=none;html=1;entryX=0.25;entryY=0;entryDx=0;entryDy=0;exitX=0.25;exitY=1;exitDx=0;exitDy=0;strokeWidth=5;" parent="JuvClYUw6dJ6BhOAlNbx-3" source="JuvClYUw6dJ6BhOAlNbx-4" target="JuvClYUw6dJ6BhOAlNbx-4" edge="1">
                    <mxGeometry width="50" height="50" relative="1" as="geometry">
                        <mxPoint x="108.5" y="270" as="sourcePoint"/>
                        <mxPoint x="108.5" y="20" as="targetPoint"/>
                    </mxGeometry>
                </mxCell>
                <mxCell id="JuvClYUw6dJ6BhOAlNbx-6" value="Load&#10;&#10;B&#10;A&#10;L&#10;A&#10;N&#10;C&#10;E&#10;R" style="text;strokeColor=none;fillColor=none;align=center;verticalAlign=middle;spacingLeft=4;spacingRight=4;overflow=hidden;points=[[0,0.5],[1,0.5]];portConstraint=eastwest;rotatable=0;fontSize=20;" parent="JuvClYUw6dJ6BhOAlNbx-3" vertex="1">
                    <mxGeometry x="11.5" y="20" width="80" height="260" as="geometry"/>
                </mxCell>
                <mxCell id="JuvClYUw6dJ6BhOAlNbx-7" value="Kubernetes Engine" style="text;strokeColor=none;fillColor=none;align=left;verticalAlign=middle;spacingLeft=4;spacingRight=4;overflow=hidden;points=[[0,0.5],[1,0.5]];portConstraint=eastwest;rotatable=0;fontSize=20;" parent="JuvClYUw6dJ6BhOAlNbx-3" vertex="1">
                    <mxGeometry x="171.5" y="20" width="182.5" height="30" as="geometry"/>
                </mxCell>
                <mxCell id="JuvClYUw6dJ6BhOAlNbx-8" value="" style="endArrow=none;html=1;fontSize=20;entryX=1;entryY=0.25;entryDx=0;entryDy=0;" parent="JuvClYUw6dJ6BhOAlNbx-3" target="JuvClYUw6dJ6BhOAlNbx-4" edge="1">
                    <mxGeometry width="50" height="50" relative="1" as="geometry">
                        <mxPoint x="111.5" y="73" as="sourcePoint"/>
                        <mxPoint x="61.5" y="50" as="targetPoint"/>
                    </mxGeometry>
                </mxCell>
                <mxCell id="JuvClYUw6dJ6BhOAlNbx-9" value="" style="rounded=0;whiteSpace=wrap;html=1;fontSize=20;" parent="JuvClYUw6dJ6BhOAlNbx-3" vertex="1">
                    <mxGeometry x="121.5" y="90" width="300" height="160" as="geometry"/>
                </mxCell>
                <mxCell id="JuvClYUw6dJ6BhOAlNbx-10" value="Pods" style="text;strokeColor=none;fillColor=none;align=left;verticalAlign=middle;spacingLeft=4;spacingRight=4;overflow=hidden;points=[[0,0.5],[1,0.5]];portConstraint=eastwest;rotatable=0;fontSize=18;" parent="JuvClYUw6dJ6BhOAlNbx-3" vertex="1">
                    <mxGeometry x="246.5" y="255" width="50" height="30" as="geometry"/>
                </mxCell>
                <mxCell id="JuvClYUw6dJ6BhOAlNbx-11" value="Edge Master Containers&#10;Reverse Edge Containers " style="text;strokeColor=none;fillColor=none;align=center;verticalAlign=middle;spacingLeft=4;spacingRight=4;overflow=hidden;points=[[0,0.5],[1,0.5]];portConstraint=eastwest;rotatable=0;fontSize=18;" parent="JuvClYUw6dJ6BhOAlNbx-3" vertex="1">
                    <mxGeometry x="161.5" y="120" width="220" height="100" as="geometry"/>
                </mxCell>
                <mxCell id="JuvClYUw6dJ6BhOAlNbx-12" value="Cluster" style="text;strokeColor=none;fillColor=none;align=center;verticalAlign=middle;spacingLeft=4;spacingRight=4;overflow=hidden;points=[[0,0.5],[1,0.5]];portConstraint=eastwest;rotatable=0;fontSize=25;" parent="aslZWIxpUyHyU3H2UiJW-1" vertex="1">
                    <mxGeometry x="640" y="490" width="130" height="90" as="geometry"/>
                </mxCell>
                <mxCell id="JuvClYUw6dJ6BhOAlNbx-13" value="" style="group" parent="aslZWIxpUyHyU3H2UiJW-1" vertex="1" connectable="0">
                    <mxGeometry x="130" y="480" width="433" height="290" as="geometry"/>
                </mxCell>
                <mxCell id="JuvClYUw6dJ6BhOAlNbx-14" value="" style="rounded=0;whiteSpace=wrap;html=1;" parent="JuvClYUw6dJ6BhOAlNbx-13" vertex="1">
                    <mxGeometry width="433" height="290" as="geometry"/>
                </mxCell>
                <mxCell id="JuvClYUw6dJ6BhOAlNbx-15" value="" style="endArrow=none;html=1;entryX=0.25;entryY=0;entryDx=0;entryDy=0;exitX=0.25;exitY=1;exitDx=0;exitDy=0;strokeWidth=5;" parent="JuvClYUw6dJ6BhOAlNbx-13" source="JuvClYUw6dJ6BhOAlNbx-14" target="JuvClYUw6dJ6BhOAlNbx-14" edge="1">
                    <mxGeometry width="50" height="50" relative="1" as="geometry">
                        <mxPoint x="108.5" y="270" as="sourcePoint"/>
                        <mxPoint x="108.5" y="20" as="targetPoint"/>
                    </mxGeometry>
                </mxCell>
                <mxCell id="JuvClYUw6dJ6BhOAlNbx-16" value="Load&#10;&#10;B&#10;A&#10;L&#10;A&#10;N&#10;C&#10;E&#10;R" style="text;strokeColor=none;fillColor=none;align=center;verticalAlign=middle;spacingLeft=4;spacingRight=4;overflow=hidden;points=[[0,0.5],[1,0.5]];portConstraint=eastwest;rotatable=0;fontSize=20;" parent="JuvClYUw6dJ6BhOAlNbx-13" vertex="1">
                    <mxGeometry x="11.5" y="20" width="80" height="260" as="geometry"/>
                </mxCell>
                <mxCell id="JuvClYUw6dJ6BhOAlNbx-17" value="Kubernetes Engine" style="text;strokeColor=none;fillColor=none;align=left;verticalAlign=middle;spacingLeft=4;spacingRight=4;overflow=hidden;points=[[0,0.5],[1,0.5]];portConstraint=eastwest;rotatable=0;fontSize=20;" parent="JuvClYUw6dJ6BhOAlNbx-13" vertex="1">
                    <mxGeometry x="171.5" y="20" width="182.5" height="30" as="geometry"/>
                </mxCell>
                <mxCell id="JuvClYUw6dJ6BhOAlNbx-18" value="" style="endArrow=none;html=1;fontSize=20;entryX=1;entryY=0.25;entryDx=0;entryDy=0;" parent="JuvClYUw6dJ6BhOAlNbx-13" target="JuvClYUw6dJ6BhOAlNbx-14" edge="1">
                    <mxGeometry width="50" height="50" relative="1" as="geometry">
                        <mxPoint x="111.5" y="73" as="sourcePoint"/>
                        <mxPoint x="61.5" y="50" as="targetPoint"/>
                    </mxGeometry>
                </mxCell>
                <mxCell id="JuvClYUw6dJ6BhOAlNbx-19" value="" style="rounded=0;whiteSpace=wrap;html=1;fontSize=20;" parent="JuvClYUw6dJ6BhOAlNbx-13" vertex="1">
                    <mxGeometry x="121.5" y="90" width="300" height="160" as="geometry"/>
                </mxCell>
                <mxCell id="JuvClYUw6dJ6BhOAlNbx-20" value="Pods" style="text;strokeColor=none;fillColor=none;align=left;verticalAlign=middle;spacingLeft=4;spacingRight=4;overflow=hidden;points=[[0,0.5],[1,0.5]];portConstraint=eastwest;rotatable=0;fontSize=18;" parent="JuvClYUw6dJ6BhOAlNbx-13" vertex="1">
                    <mxGeometry x="246.5" y="255" width="50" height="30" as="geometry"/>
                </mxCell>
                <mxCell id="JuvClYUw6dJ6BhOAlNbx-21" value="Edge Master Containers&#10;Reverse Edge Containers " style="text;strokeColor=none;fillColor=none;align=center;verticalAlign=middle;spacingLeft=4;spacingRight=4;overflow=hidden;points=[[0,0.5],[1,0.5]];portConstraint=eastwest;rotatable=0;fontSize=18;" parent="JuvClYUw6dJ6BhOAlNbx-13" vertex="1">
                    <mxGeometry x="161.5" y="120" width="220" height="100" as="geometry"/>
                </mxCell>
            </root>
        </mxGraphModel>
    </diagram>
</mxfile>